<svg width="16" height="17" viewBox="0 0 16 17" fill="none" xmlns="http://www.w3.org/2000/svg">
<path d="M11.5358 6.11729C11.6529 6.23449 11.7186 6.39337 11.7186 6.55901C11.7186 6.72466 11.6529 6.88354 11.5358 7.00074L7.33819 11.1943C7.22099 11.3113 7.06211 11.3771 6.89647 11.3771C6.73082 11.3771 6.57194 11.3113 6.45474 11.1943L4.45909 9.1976C4.35119 9.07867 4.29321 8.92278 4.29716 8.76225C4.30111 8.60172 4.36669 8.44887 4.4803 8.33539C4.59391 8.22191 4.74684 8.15651 4.90737 8.15275C5.0679 8.14898 5.22372 8.20714 5.34253 8.31517L6.89698 9.8686L10.6473 6.11729C10.7054 6.05856 10.7746 6.01194 10.8508 5.98012C10.9271 5.94829 11.0089 5.93191 11.0915 5.93191C11.1742 5.93191 11.256 5.94829 11.3322 5.98012C11.4085 6.01194 11.4777 6.05856 11.5358 6.11729V6.11729ZM16 8.65629C15.9998 10.2383 15.5306 11.7847 14.6516 13.1C13.7727 14.4154 12.5235 15.4406 11.0619 16.0461C9.60041 16.6516 7.99217 16.8102 6.44053 16.5018C4.88889 16.1934 3.46351 15.4319 2.34459 14.3136C1.22567 13.1952 0.463445 11.7702 0.15427 10.2187C-0.154906 8.66727 0.00285213 7.05895 0.6076 5.59711C1.21235 4.13527 2.23693 2.88555 3.55183 2.00593C4.86673 1.12631 6.41291 0.656285 7.9949 0.655275C9.04571 0.654604 10.0863 0.861064 11.0573 1.26285C12.0283 1.66464 12.9105 2.25387 13.6536 2.99686C14.3967 3.73985 14.986 4.62202 15.3879 5.59294C15.7899 6.56385 15.9965 7.60446 15.9959 8.65527L16 8.65629ZM14.7499 8.65629C14.7499 7.32129 14.354 6.01627 13.6123 4.90625C12.8707 3.79623 11.8165 2.93108 10.5831 2.4202C9.3497 1.90931 7.99251 1.77564 6.68316 2.03609C5.37381 2.29654 4.17109 2.9394 3.2271 3.88339C2.28311 4.82738 1.64024 6.0301 1.3798 7.33945C1.11935 8.64881 1.25302 10.006 1.7639 11.2394C2.27479 12.4728 3.13994 13.5269 4.24996 14.2686C5.35997 15.0103 6.665 15.4062 8 15.4062C8.88627 15.4061 9.76382 15.2313 10.5825 14.8919C11.4012 14.5526 12.1451 14.0552 12.7715 13.4283C13.398 12.8014 13.8948 12.0572 14.2335 11.2382C14.5723 10.4192 14.7464 9.54154 14.7458 8.65527L14.7499 8.65629Z" fill="#B6B4C6"/>
</svg>
