<svg width="16" height="13" viewBox="0 0 16 13" fill="none" xmlns="http://www.w3.org/2000/svg">
<path d="M0 0.655273V12.6553H16V0.655273H0ZM10.1566 5.73219C9.87768 6.00862 9.54281 6.2286 9.17212 6.37887C8.80142 6.52914 8.40255 6.6066 7.99951 6.6066C7.59648 6.6066 7.19761 6.52914 6.82691 6.37887C6.45621 6.2286 6.12135 6.00862 5.84247 5.73219L1.59932 1.57835H14.3997L10.1566 5.73219ZM4.88249 6.09035L0.937633 10.8904V2.22358L4.88249 6.09035ZM5.57041 6.71804C6.2607 7.24031 7.11706 7.52469 7.99951 7.52469C8.88197 7.52469 9.73832 7.24031 10.4286 6.71804L14.5513 11.7387H1.44774L5.57041 6.71804ZM11.1165 6.09035L15.0614 2.22451V10.894L11.1165 6.09035Z" fill="#B6B4C6"/>
</svg>
