<svg width="16" height="17" viewBox="0 0 16 17" fill="none" xmlns="http://www.w3.org/2000/svg">
<g clip-path="url(#clip0_0_50)">
<path d="M7.07413 16.6553C5.19796 16.6553 3.39862 15.91 2.07197 14.5833C0.745308 13.2567 0 11.4573 0 9.58115C0 7.70498 0.745308 5.90564 2.07197 4.57899C3.39862 3.25233 5.19796 2.50702 7.07413 2.50702H7.54347V9.11182H14.1483V9.58115C14.1483 11.4573 13.403 13.2567 12.0763 14.5833C10.7496 15.91 8.95031 16.6553 7.07413 16.6553V16.6553ZM6.6048 3.46489C5.43505 3.55484 4.31563 3.97833 3.37926 4.68517C2.44289 5.392 1.72884 6.35252 1.32179 7.45285C0.914737 8.55317 0.831747 9.74714 1.08266 10.8932C1.33358 12.0393 1.90787 13.0893 2.73745 13.9189C3.56703 14.7485 4.6171 15.3228 5.76315 15.5737C6.90921 15.8246 8.10318 15.7416 9.20351 15.3346C10.3038 14.9275 11.2644 14.2135 11.9712 13.2771C12.678 12.3407 13.1015 11.2213 13.1915 10.0516H6.6048V3.46489Z" fill="#B6B4C6"/>
<path d="M16 8.08354H8.57172V0.655273H9.03464C10.882 0.655273 12.6536 1.38912 13.9599 2.69537C15.2662 4.00163 16 5.77329 16 7.62061V8.08354ZM9.49333 7.15874H15.0538C14.9417 5.72187 14.3202 4.37225 13.3014 3.35285C12.2826 2.33345 10.9333 1.71123 9.49652 1.59821L9.49333 7.15874Z" fill="#B6B4C6"/>
</g>
<defs>
<clipPath id="clip0_0_50">
<rect width="16" height="16" fill="white" transform="translate(0 0.655273)"/>
</clipPath>
</defs>
</svg>
