<svg width="17" height="16" viewBox="0 0 17 16" fill="none" xmlns="http://www.w3.org/2000/svg">
<path d="M7.88552 3.89656L6.13683 2.14656C5.94198 1.95131 5.62521 1.95131 5.43036 2.14656L3.68167 3.89656C3.48656 4.09181 3.48656 4.40831 3.68167 4.60356C3.87652 4.79881 4.19328 4.79881 4.38814 4.60356L5.28397 3.70706V13.5001C5.28397 13.7761 5.5078 14.0001 5.78359 14.0001C6.05939 14.0001 6.28322 13.7761 6.28322 13.5001V3.70706L7.17905 4.60356C7.27648 4.70131 7.40438 4.75006 7.53229 4.75006C7.66019 4.75006 7.78809 4.70131 7.88552 4.60356C8.08063 4.40831 8.08063 4.09181 7.88552 3.89656Z" fill="white"/>
<path d="M12.3822 11.3965C12.187 11.2013 11.8708 11.2013 11.6757 11.3965L10.7799 12.293V2.5C10.7799 2.224 10.556 2 10.2802 2C10.0044 2 9.78061 2.224 9.78061 2.5V12.293L8.88478 11.3965C8.68968 11.2013 8.37316 11.2013 8.17831 11.3965C7.98321 11.5917 7.98321 11.9083 8.17831 12.1035L9.927 13.8535C10.0247 13.9513 10.1523 14 10.2802 14C10.4081 14 10.5358 13.9513 10.6335 13.8535L12.3822 12.1035C12.5773 11.9083 12.5773 11.5917 12.3822 11.3965Z" fill="white"/>
</svg>
