<svg width="16" height="13" viewBox="0 0 16 13" fill="none" xmlns="http://www.w3.org/2000/svg">
<path d="M15.5307 11.6605H15.0306V1.15226C15.03 1.0863 15.0174 1.02113 14.9935 0.960459C14.9696 0.899789 14.9349 0.844817 14.8914 0.798669C14.8479 0.752521 14.7964 0.716101 14.74 0.691502C14.6835 0.666903 14.6231 0.654606 14.5622 0.655301H12.6875C12.6266 0.654606 12.5662 0.666903 12.5097 0.691502C12.4532 0.716101 12.4017 0.752521 12.3582 0.798669C12.3147 0.844817 12.2801 0.899789 12.2562 0.960459C12.2323 1.02113 12.2197 1.0863 12.219 1.15226V11.6605H11.2813V4.13581C11.2806 4.06985 11.268 4.00468 11.2441 3.94401C11.2202 3.88333 11.1856 3.82835 11.1421 3.7822C11.0986 3.73605 11.0471 3.69965 10.9906 3.67505C10.9341 3.65045 10.8737 3.63814 10.8128 3.63883H8.93733C8.87644 3.63814 8.81603 3.65045 8.75954 3.67505C8.70305 3.69965 8.65158 3.73605 8.60808 3.7822C8.56458 3.82835 8.52989 3.88333 8.506 3.94401C8.48212 4.00468 8.46949 4.06985 8.46886 4.13581V11.6605H7.53112V8.11327C7.53048 8.04731 7.51786 7.98214 7.49397 7.92147C7.47008 7.8608 7.4354 7.80581 7.3919 7.75966C7.3484 7.71352 7.29693 7.67711 7.24044 7.65251C7.18394 7.62791 7.12353 7.6156 7.06265 7.6163H5.18716C5.12628 7.6156 5.06587 7.62791 5.00937 7.65251C4.95288 7.67711 4.90141 7.71352 4.85791 7.75966C4.81441 7.80581 4.77973 7.8608 4.75584 7.92147C4.73195 7.98214 4.71933 8.04731 4.71869 8.11327V11.6605H3.78095V6.12892C3.78032 6.06296 3.76769 5.9978 3.74381 5.93713C3.71992 5.87646 3.68524 5.82148 3.64173 5.77533C3.59823 5.72918 3.54676 5.69277 3.49027 5.66817C3.43378 5.64357 3.37337 5.63126 3.31248 5.63196H1.43781C1.37692 5.63126 1.31651 5.64357 1.26002 5.66817C1.20353 5.69277 1.15206 5.72918 1.10856 5.77533C1.06506 5.82148 1.03037 5.87646 1.00648 5.93713C0.982597 5.9978 0.969976 6.06296 0.96934 6.12892V11.6605H0.468454C0.346681 11.6605 0.229895 11.7129 0.143789 11.8062C0.057682 11.8995 0.00930786 12.026 0.00930786 12.1579C0.00930786 12.2898 0.057682 12.4163 0.143789 12.5096C0.229895 12.6029 0.346681 12.6553 0.468454 12.6553H15.5307C15.6525 12.6553 15.7693 12.6029 15.8554 12.5096C15.9415 12.4163 15.9899 12.2898 15.9899 12.1579C15.9899 12.026 15.9415 11.8995 15.8554 11.8062C15.7693 11.7129 15.6525 11.6605 15.5307 11.6605V11.6605ZM13.156 1.65099H14.0937V11.6605H13.156V1.65099ZM9.40579 4.63627H10.3435V11.6605H9.40579V4.63627ZM5.65563 8.61374H6.59337V11.6631H5.65644L5.65563 8.61374ZM1.90627 6.62589H2.84402V11.664H1.90627V6.62589Z" fill="#B6B4C6"/>
</svg>
