<svg width="16" height="17" viewBox="0 0 16 17" fill="none" xmlns="http://www.w3.org/2000/svg">
<path d="M13.5157 3.13953C12.8012 2.37266 11.9395 1.75758 10.982 1.33098C10.0246 0.90437 8.99102 0.674979 7.943 0.656488C6.89497 0.637997 5.85396 0.830784 4.88207 1.22335C3.91017 1.61591 3.0273 2.20022 2.28612 2.94139C1.54494 3.68257 0.960641 4.56544 0.568076 5.53734C0.175511 6.50924 -0.0172764 7.55025 0.00121472 8.59827C0.0197058 9.64629 0.249097 10.6799 0.675703 11.6373C1.10231 12.5947 1.71739 13.4564 2.48425 14.171C3.19882 14.9379 4.06053 15.553 5.01798 15.9796C5.97542 16.4062 7.00898 16.6356 8.057 16.6541C9.10503 16.6726 10.146 16.4798 11.1179 16.0872C12.0898 15.6946 12.9727 15.1103 13.7139 14.3692C14.4551 13.628 15.0394 12.7451 15.4319 11.7732C15.8245 10.8013 16.0173 9.7603 15.9988 8.71228C15.9803 7.66426 15.7509 6.63069 15.3243 5.67325C14.8977 4.71581 14.2826 3.8541 13.5157 3.13953V3.13953ZM8 15.5052C6.64521 15.5052 5.32085 15.1035 4.19438 14.3508C3.06792 13.5981 2.18994 12.5283 1.67149 11.2766C1.15303 10.025 1.01738 8.64767 1.28169 7.31892C1.54599 5.99016 2.19839 4.76962 3.15637 3.81164C4.11435 2.85366 5.33489 2.20127 6.66364 1.93696C7.9924 1.67265 9.36969 1.80831 10.6214 2.32676C11.873 2.84522 12.9428 3.72319 13.6955 4.84965C14.4482 5.97612 14.8499 7.30048 14.8499 8.65527C14.848 10.4714 14.1257 12.2126 12.8415 13.4968C11.5573 14.781 9.81612 15.5033 8 15.5052V15.5052Z" fill="#B6B4C6"/>
<path d="M7.99983 3.0968C6.90048 3.0968 5.82581 3.4228 4.91173 4.03356C3.99766 4.64433 3.28522 5.51244 2.86452 6.5281C2.44381 7.54377 2.33374 8.66139 2.54821 9.73961C2.76269 10.8178 3.29207 11.8083 4.06943 12.5856C4.84679 13.363 5.8372 13.8924 6.91543 14.1068C7.99365 14.3213 9.11127 14.2112 10.1269 13.7905C11.1426 13.3698 12.0107 12.6574 12.6215 11.7433C13.2322 10.8292 13.5582 9.75457 13.5582 8.65522C13.5566 7.18154 12.9704 5.7687 11.9284 4.72665C10.8863 3.6846 9.4735 3.09845 7.99983 3.0968V3.0968ZM11.5996 11.6129L10.9752 10.9885L10.3383 11.6254L10.9627 12.2498C10.2495 12.839 9.37644 13.2014 8.45565 13.2905V12.4111H7.5544V13.2957C6.6336 13.2067 5.76049 12.8443 5.04734 12.255L5.67176 11.6306L5.03485 10.9937L4.41042 11.6181C3.82117 10.905 3.45873 10.0318 3.36972 9.11105H4.24912V8.2098H3.36972C3.45873 7.289 3.82117 6.41588 4.41042 5.70273L5.03485 6.32716L5.67176 5.69024L5.04734 5.06582C5.76049 4.47657 6.6336 4.11413 7.5544 4.02511V4.90451H8.45565V4.02511C9.37645 4.11413 10.2496 4.47657 10.9627 5.06582L10.3383 5.69024L10.9752 6.32716L11.5996 5.70273C12.1889 6.41588 12.5513 7.289 12.6403 8.2098H8.78972C8.71038 8.07296 8.59665 7.95923 8.45981 7.87989V5.80264H7.55856V7.87677C7.43885 7.9459 7.33665 8.04163 7.25985 8.15658C7.18306 8.27152 7.13374 8.40259 7.1157 8.53964C7.09766 8.67669 7.11139 8.81606 7.15583 8.94696C7.20026 9.07786 7.27421 9.19678 7.37196 9.29452C7.46971 9.39227 7.58863 9.46623 7.71953 9.51066C7.85043 9.5551 7.9898 9.56883 8.12685 9.55079C8.26391 9.53275 8.39497 9.48343 8.50991 9.40664C8.62486 9.32984 8.72059 9.22764 8.78972 9.10793H12.6403C12.5509 10.028 12.1885 10.9003 11.5996 11.6129V11.6129Z" fill="#B6B4C6"/>
</svg>
